<?xml version="1.0" encoding="UTF-8"?>
<svg id="Layer_1" data-name="Layer 1" xmlns="http://www.w3.org/2000/svg" viewBox="0 0 384.72 384.72">
  <defs>
    <style>
      .cls-1 {
        fill: #fff;
      }

      .cls-2 {
        fill: #223944;
      }
    </style>
  </defs>
  <path class="cls-1" d="m0,384.72C0,256.48,0,128.2401,0,0c128.24,0,256.4799,0,384.7199,0,0,128.2399,0,256.4798,0,384.7198-128.2399,0-256.48,0-384.72.0002Zm120.2054-24.0569c2.8916-.2763,5.6978-.2765,8.4635-1.3752,2.7719-1.1011,5.2445-2.6217,7.4674-4.5098,1.9164-1.6279,3.5541-3.5805,5.351-5.3531,2.0648-2.0367,4.192-4.0104,6.25-6.0537,2.1615-2.146,4.2605-4.3547,6.4102-6.5127,1.9995-2.0072,4.0487-3.9651,6.0425-5.978,3.5426-3.5766,7.0405-7.1975,10.5945-10.7625,2.2936-2.3007,4.6703-4.5183,6.9779-6.8053,1.3629-1.3508,2.6401-2.788,3.9973-4.1448,2.9659-2.9651,5.9663-5.8956,8.9377-8.8551,4.0162-4.0001,8.0266-8.006,12.0242-12.0247,3.8499-3.8702,7.6596-7.7804,11.5255-11.6345,3.4969-3.4863,7.061-6.9052,10.5668-10.3826,2.6719-2.6503,5.3102-5.3349,7.9424-8.0248,2.0791-2.1247,4.0994-4.3075,6.1948-6.4158,2.2375-2.2514,4.5471-4.4311,6.7989-6.6686,3.0088-2.9898,5.9799-6.0176,8.9897-9.0063,3.6035-3.5782,7.2461-7.117,10.8435-10.7011,3.7971-3.7831,7.5614-7.5991,11.3392-11.4016,2.2052-2.2196,4.5327-4.3344,6.5648-6.7025,1.1602-1.352,1.7799-3.1547,2.7473-4.6886,1.2082-1.9156,1.8848-4.056,2.0171-6.2224.2097-3.4341.4766-6.8762-.4673-10.3309-.7567-2.7696-2.0425-5.1814-3.6121-7.4967-1.9369-2.8571-4.4815-5.1556-6.9385-7.5509-4.3432-4.2343-8.5431-8.6153-12.8245-12.9135-2.5515-2.5615-5.1599-5.0663-7.714-7.6251-2.5704-2.5753-5.0842-5.2073-7.6607-7.7764-4.3659-4.3536-8.7751-8.6638-13.1398-13.0186-2.6367-2.6308-5.1912-5.3443-7.8414-7.9611-3.3818-3.3391-6.8669-6.574-10.2267-9.9345-3.7629-3.7637-7.4144-7.6385-11.157-11.4226-1.6423-1.6605-3.4251-3.1815-5.079-4.8311-1.2095-1.2062-2.2706-2.5607-3.4717-3.776-2.9299-2.9645-5.8975-5.8917-8.8602-8.8236-1.6671-1.6497-3.2835-3.3606-5.0512-4.8961-2.1502-1.8679-4.4174-3.611-7.2472-4.3861-.9449-.2588-1.912-.4524-2.8341-.7753-3.4354-1.2033-6.9552-.5693-10.4326-.4298-1.199.0481-2.3954.7061-3.5486,1.191-1.0738.4515-2.0357,1.2546-3.1399,1.5309-2.6026.6512-4.2614,2.5569-6.0899,4.236-2.0893,1.9186-3.5871,4.2734-4.5754,6.926-.7256,1.9475-1.7764,3.9018-1.9258,5.9093-.3106,4.1745-.5014,8.37,1.1909,12.4626.8453,2.0443,1.579,4.1289,2.9941,5.7927,2.305,2.7101,4.7581,5.3029,7.2619,7.8333,4.1103,4.1539,8.3241,8.2051,12.4697,12.3244,3.2391,3.2185,6.4403,6.4751,9.6594,9.7137,4.0097,4.0341,8.0125,8.075,12.0328,12.0983,3.9855,3.9885,7.9984,7.9495,11.9822,11.9396,4.342,4.3491,8.6593,8.7229,12.9966,13.0767,4.6812,4.699,9.3703,9.3899,14.0642,14.0762.5088.508.6123.9108.0393,1.4864-2.7158,2.7281-5.3774,5.5102-8.094,8.2374-2.6002,2.6104-5.2554,5.1661-7.8656,7.7666-1.8836,1.8766-3.7172,3.8034-5.6011,5.6797-6.5073,6.4809-13.0358,12.9404-19.5376,19.4267-2.7813,2.7747-5.4983,5.6138-8.2774,8.3907-3.2231,3.2205-6.5021,6.385-9.7213,9.6094-4.7918,4.7995-9.5506,9.632-14.327,14.4469-3.3824,3.4097-6.762,6.8222-10.1583,10.218-6.566,6.5651-13.1389,13.1232-19.7179,19.6752-1.6831,1.6761-3.4228,3.2956-5.0959,4.9814-2.7146,2.7354-5.3652,5.5348-8.0978,8.2517-4.4674,4.4417-9.3381,8.4885-12.9844,13.7203-1.8534,2.6593-2.8935,5.6646-3.2198,8.7513-.4027,3.8099-.364,7.6642.7035,11.4855,1.0655,3.8138,3.4151,6.7465,5.8592,9.6145,2.605,3.0568,6.0755,5.0474,9.8534,6.2302,2.3447.7342,4.914.7508,7.3824,1.0896Zm24.2206-312.2494c-.0265,0-.053-.0002-.0795-.0002,0-1.5182.1705-3.0619-.0514-4.547-.1941-1.2991-.8347-2.5304-1.2688-3.7948-.8495-2.474-2.025-4.7612-3.6796-6.8092-1.6882-2.0896-3.7194-3.7198-5.9067-5.2859-2.6462-1.8946-5.5648-3.1192-8.6326-3.4587-5.0041-.5538-10.012-.4699-14.7865,1.8505-4.0381,1.9625-7.2314,4.7536-9.8044,8.3429-2.0597,2.8733-3.5247,6.0757-3.82,9.5783-.41,4.8634-.2834,9.6681,1.9551,14.292,1.2333,2.5475,2.6639,4.8627,4.6035,6.8273,2.0755,2.1023,4.2956,4.0707,7.2721,4.9393,1.9521.5696,3.8168,1.8354,5.7661,1.9397,4.9285.2637,9.9379.8333,14.5756-1.9156,2.2312-1.3225,4.5187-2.4891,6.437-4.2781,2.2028-2.0543,3.9276-4.4188,5.1872-7.1591,1.2268-2.6689,2.2352-5.3752,2.2328-8.3626-.0006-.7195,0-1.439,0-2.1585Z"/>
  <path class="cls-2" d="m120.2054,360.6631c-2.4685-.3387-5.0378-.3554-7.3824-1.0896-3.7779-1.1829-7.2484-3.1734-9.8534-6.2302-2.4441-2.868-4.7937-5.8006-5.8592-9.6145-1.0675-3.8213-1.1062-7.6756-.7035-11.4855.3263-3.0867,1.3663-6.0919,3.2198-8.7513,3.6463-5.2317,8.517-9.2786,12.9844-13.7203,2.7327-2.7169,5.3832-5.5163,8.0978-8.2517,1.673-1.6858,3.4128-3.3053,5.0959-4.9814,6.579-6.552,13.1519-13.1101,19.7179-19.6752,3.3963-3.3958,6.7759-6.8084,10.1583-10.218,4.7764-4.8149,9.5352-9.6474,14.327-14.4469,3.2192-3.2244,6.4982-6.3889,9.7213-9.6094,2.7791-2.7769,5.4961-5.616,8.2774-8.3907,6.5018-6.4864,13.0303-12.9459,19.5376-19.4267,1.8839-1.8763,3.7175-3.8031,5.6011-5.6797,2.6103-2.6005,5.2654-5.1561,7.8656-7.7666,2.7166-2.7272,5.3782-5.5093,8.094-8.2374.573-.5756.4695-.9784-.0393-1.4864-4.6938-4.6863-9.383-9.3772-14.0642-14.0762-4.3373-4.3538-8.6546-8.7276-12.9966-13.0767-3.9837-3.9902-7.9967-7.9512-11.9822-11.9396-4.0203-4.0234-8.0232-8.0643-12.0328-12.0983-3.2191-3.2387-6.4203-6.4952-9.6594-9.7137-4.1456-4.1193-8.3594-8.1705-12.4697-12.3244-2.5038-2.5304-4.9569-5.1232-7.2619-7.8333-1.4151-1.6638-2.1488-3.7484-2.9941-5.7927-1.6923-4.0926-1.5015-8.288-1.1909-12.4626.1494-2.0076,1.2002-3.9618,1.9258-5.9093.9883-2.6526,2.4861-5.0074,4.5754-6.926,1.8285-1.6791,3.4873-3.5848,6.0899-4.236,1.1042-.2763,2.0661-1.0794,3.1399-1.5309,1.1532-.4849,2.3496-1.1429,3.5486-1.191,3.4774-.1395,6.9972-.7735,10.4326.4298.9221.323,1.8892.5165,2.8341.7753,2.8299.7752,5.097,2.5183,7.2472,4.3861,1.7676,1.5355,3.3841,3.2464,5.0512,4.8961,2.9627,2.9318,5.9304,5.8591,8.8602,8.8236,1.2011,1.2153,2.2622,2.5697,3.4717,3.776,1.654,1.6496,3.4368,3.1706,5.079,4.8311,3.7427,3.7841,7.3942,7.6589,11.157,11.4226,3.3598,3.3605,6.845,6.5955,10.2267,9.9345,2.6502,2.6168,5.2047,5.3303,7.8414,7.9611,4.3647,4.3548,8.7739,8.665,13.1398,13.0186,2.5765,2.5692,5.0902,5.2012,7.6607,7.7764,2.5541,2.5589,5.1625,5.0637,7.714,7.6251,4.2814,4.2981,8.4813,8.6792,12.8245,12.9135,2.457,2.3953,5.0016,4.6938,6.9385,7.5509,1.5696,2.3152,2.8554,4.7271,3.6121,7.4967.9439,3.4546.6769,6.8967.4673,10.3309-.1323,2.1663-.8089,4.3067-2.0171,6.2224-.9674,1.5339-1.5872,3.3366-2.7473,4.6886-2.0321,2.3682-4.3597,4.483-6.5648,6.7025-3.7778,3.8025-7.5421,7.6185-11.3392,11.4016-3.5974,3.5842-7.24,7.123-10.8435,10.7011-3.0099,2.9887-5.9809,6.0165-8.9897,9.0063-2.2518,2.2375-4.5613,4.4171-6.7989,6.6686-2.0953,2.1083-4.1156,4.2911-6.1948,6.4158-2.6322,2.6899-5.2705,5.3745-7.9424,8.0248-3.5058,3.4775-7.0699,6.8963-10.5668,10.3826-3.8658,3.8541-7.6756,7.7643-11.5255,11.6345-3.9976,4.0187-8.008,8.0246-12.0242,12.0247-2.9715,2.9595-5.9719,5.89-8.9377,8.8551-1.3572,1.3568-2.6343,2.794-3.9973,4.1448-2.3076,2.287-4.6843,4.5046-6.9779,6.8053-3.554,3.565-7.0519,7.1859-10.5945,10.7625-1.9938,2.0129-4.0429,3.9708-6.0425,5.978-2.1497,2.158-4.2487,4.3668-6.4102,6.5127-2.0581,2.0434-4.1852,4.017-6.25,6.0537-1.7969,1.7726-3.4346,3.7252-5.351,5.3531-2.2229,1.8881-4.6955,3.4087-7.4674,4.5098-2.7657,1.0987-5.5719,1.0989-8.4635,1.3752Z"/>
  <path class="cls-2" d="m144.4259,48.4137c0,.7195-.0005,1.439,0,2.1585.0024,2.9875-1.006,5.6938-2.2328,8.3626-1.2596,2.7403-2.9845,5.1048-5.1872,7.1591-1.9183,1.789-4.2058,2.9557-6.437,4.2781-4.6377,2.7489-9.6471,2.1793-14.5756,1.9156-1.9493-.1043-3.814-1.3701-5.7661-1.9397-2.9765-.8686-5.1966-2.837-7.2721-4.9393-1.9395-1.9646-3.3702-4.2798-4.6035-6.8273-2.2385-4.6239-2.3651-9.4285-1.9551-14.292.2953-3.5026,1.7602-6.7049,3.82-9.5783,2.5729-3.5892,5.7663-6.3803,9.8044-8.3429,4.7744-2.3204,9.7823-2.4043,14.7865-1.8505,3.0677.3395,5.9864,1.5642,8.6326,3.4587,2.1873,1.566,4.2185,3.1962,5.9067,5.2859,1.6546,2.0481,2.8302,4.3352,3.6796,6.8092.4341,1.2644,1.0747,2.4958,1.2688,3.7948.2219,1.4851.0514,3.0288.0514,4.547.0265,0,.053.0002.0795.0002Z"/>
</svg>