<?xml version="1.0" encoding="UTF-8"?>
<svg id="Layer_1" data-name="Layer 1" xmlns="http://www.w3.org/2000/svg" viewBox="0 0 420 420">
  <defs>
    <style>
      .cls-1 {
        fill: #fff;
      }

      .cls-2 {
        fill: #df4807;
      }
    </style>
  </defs>
  <path class="cls-1" d="m0,420V0h420v420H0Zm16.5519-212.9314c0,8.1515-.3905,14.9301.111,21.6421.4908,6.5694,1.506,13.1578,2.9596,19.5868,5.5899,24.7229,14.983,47.861,29.389,68.8589,6.7116,9.7827,14.421,18.6639,22.5532,27.3008,4.5539,4.8366,12.4572,5.8584,18.4835,1.6821,5.4063-3.7466,5.4018-13.0675,2.698-17.3956-1.1748-1.8806-2.8765-3.4257-4.2742-5.1749-5.5134-6.8998-11.3399-13.581-16.4264-20.7838-9.9281-14.0589-16.9518-29.5782-21.8212-46.0856-4.1503-14.0698-6.7113-28.3889-6.6833-43.0845.0123-6.4479.4359-12.896.7137-19.3423.461-10.6965,2.8788-21.0295,5.9123-31.2395,5.9998-20.1944,15.2774-38.6442,28.2512-55.3602,7.2622-9.3569,15.2007-17.9845,24.3133-25.3962,13.2305-10.7609,27.7075-19.6111,43.5688-26.1163,19.587-8.0332,39.9477-12.2485,61.0809-12.6597,5.067-.0986,10.1548.3401,15.2181.7274,5.1491.3938,10.3555.6415,15.4045,1.6295,17.1731,3.3605,33.691,8.6993,49.1844,17.0142,3.4411,1.8467,7.2509,1.4926,10.8609.1994,5.2732-1.8889,7.4214-6.2029,7.9744-11.3454.6223-5.7863-2.1423-10.0234-7.1405-12.636-12.3376-6.4489-25.1052-11.9243-38.5934-15.4721-13.7729-3.6227-27.6619-6.6687-42.049-6.4403-6.6242.1052-13.2676-.2732-19.8734.0912-8.3542.461-16.7848.8686-24.9929,2.3495-14.5124,2.6182-28.5338,7.0378-42.1381,12.9022-18.7084,8.0647-35.8137,18.6871-50.7687,32.3705-8.92,8.1615-16.9443,17.4137-24.6391,26.7772-13.355,16.2512-22.848,34.7477-29.6182,54.6426-6.8581,20.1529-10.8961,40.7494-9.6582,60.7579Zm383.9068,1.5996c.9734-14.5776-.952-29.195-4.3531-43.672-4.8342-20.5773-12.4962-40.0539-24.15-57.6738-6.9484-10.5056-15.0422-20.2743-22.9264-30.13-2.9639-3.7051-6.3764-6.9945-12.0457-6.891-5.4029.0986-10.1053,2.1132-12.3119,6.6835-2.5818,5.3473-1.793,11.114,1.8503,15.0728,4.1034,4.4587,8.3139,8.8512,12.0524,13.6069,9.7919,12.4563,17.7223,26.0261,23.8251,40.6843,8.0961,19.446,12.2482,39.7681,12.4979,60.7064.1234,10.3447-1.5877,20.739-2.84,31.0659-1.9397,15.9943-7.6228,30.9065-14.6256,45.2326-7.2255,14.7817-16.5226,28.4039-28.1543,40.0237-8.4118,8.4032-17.7566,16.0043-27.345,23.0678-14.874,10.9574-31.7265,18.2209-49.4962,23.0504-15.5239,4.2191-31.3545,6.238-47.5721,5.6552-10.8839-.3911-21.5531-1.5777-32.1725-3.8657-14.2659-3.0736-27.7996-8.1537-40.7009-14.8366-6.1948-3.2089-15.0012-1.9545-18.4181,3.8004-3.2155,5.4157-3.1761,14.2556,4.2531,18.4139,6.4756,3.6246,13.1807,6.9626,20.0762,9.6895,17.6885,6.9954,36.1303,11.6577,55.0691,12.6285,14.8298.7602,29.8634.0528,44.6469-1.5111,14.1478-1.4966,27.8309-5.8408,41.1885-10.96,21.3761-8.1923,40.6272-19.9774,57.4431-35.3457,9.2014-8.4093,17.5422-17.8937,25.4227-27.583,12.1496-14.9384,21.1312-31.8447,27.6262-49.9658,7.709-21.5085,12.487-43.5742,11.1606-66.947Zm-179.1589-24.1892c0-17.3619.0145-34.7239-.0291-52.0857-.0033-1.3109-.1787-2.7234-.685-3.914-2.5653-6.0336-8.7404-9.052-15.544-7.7457-5.0894.9772-9.9748,7.5598-9.9779,13.583-.0163,32.6005-.0087,65.2009-.0073,97.8014.0003,7.4025,3.2815,12.0606,10.0892,14.7724,8.7268,3.4762,16.322-4.4885,16.2322-11.0761-.2331-17.1089-.0783-34.2232-.0783-51.3353Zm0,101.6895c1.3368-7.2062-6.1928-13.5-12.8326-13.3226-8.1248.2172-13.0099,6.3158-13.3242,13.3037-.3201,7.1168,6.1639,13.1118,13.4932,13.084,7.6047-.0288,12.6635-5.2479,12.6637-13.0652Z"/>
  <path class="cls-2" d="m16.5519,207.0686c-1.2379-20.0084,2.8002-40.6049,9.6582-60.7579,6.7703-19.8949,16.2632-38.3914,29.6182-54.6426,7.6948-9.3634,15.7191-18.6156,24.6391-26.7772,14.955-13.6834,32.0604-24.3058,50.7687-32.3705,13.6042-5.8645,27.6257-10.284,42.1381-12.9022,8.2081-1.4809,16.6388-1.8885,24.9929-2.3495,6.6058-.3645,13.2492.014,19.8734-.0912,14.3871-.2285,28.2761,2.8175,42.049,6.4403,13.4882,3.5478,26.2558,9.0232,38.5934,15.4721,4.9983,2.6126,7.7628,6.8497,7.1405,12.636-.553,5.1425-2.7012,9.4564-7.9744,11.3454-3.61,1.2932-7.4198,1.6473-10.8609-.1994-15.4935-8.3148-32.0114-13.6537-49.1844-17.0142-5.049-.988-10.2554-1.2357-15.4045-1.6295-5.0633-.3873-10.1511-.826-15.2181-.7274-21.1332.4113-41.4939,4.6265-61.0809,12.6597-15.8613,6.5051-30.3383,15.3554-43.5688,26.1163-9.1127,7.4117-17.0511,16.0392-24.3133,25.3962-12.9738,16.716-22.2514,35.1658-28.2512,55.3602-3.0334,10.2101-5.4513,20.543-5.9123,31.2395-.2778,6.4463-.7014,12.8944-.7137,19.3423-.028,14.6956,2.533,29.0147,6.6833,43.0845,4.8694,16.5074,11.8931,32.0267,21.8212,46.0856,5.0864,7.2028,10.913,13.884,16.4264,20.7838,1.3977,1.7492,3.0994,3.2943,4.2742,5.1749,2.7038,4.3281,2.7083,13.649-2.698,17.3956-6.0264,4.1764-13.9296,3.1545-18.4835-1.6821-8.1322-8.6369-15.8416-17.5182-22.5532-27.3008-14.406-20.9979-23.7991-44.136-29.389-68.8589-1.4536-6.429-2.4688-13.0174-2.9596-19.5868-.5015-6.712-.111-13.4906-.111-21.6421Z"/>
  <path class="cls-2" d="m400.4588,208.6682c1.3263,23.3728-3.4516,45.4385-11.1606,66.947-6.495,18.1211-15.4765,35.0274-27.6262,49.9658-7.8805,9.6894-16.2214,19.1737-25.4227,27.583-16.8159,15.3684-36.0671,27.1535-57.4431,35.3457-13.3575,5.1192-27.0407,9.4634-41.1885,10.96-14.7835,1.5639-29.8171,2.2713-44.6469,1.5111-18.9388-.9708-37.3806-5.6331-55.0691-12.6285-6.8955-2.7269-13.6006-6.065-20.0762-9.6895-7.4292-4.1584-7.4686-12.9982-4.2531-18.4139,3.4169-5.7549,12.2233-7.0093,18.4181-3.8004,12.9013,6.683,26.435,11.763,40.7009,14.8366,10.6194,2.288,21.2886,3.4746,32.1725,3.8657,16.2177.5828,32.0482-1.436,47.5721-5.6552,17.7697-4.8295,34.6222-12.093,49.4962-23.0504,9.5884-7.0636,18.9332-14.6646,27.345-23.0678,11.6317-11.6198,20.9288-25.2421,28.1543-40.0237,7.0028-14.3261,12.6859-29.2383,14.6256-45.2326,1.2524-10.3269,2.9634-20.7212,2.84-31.0659-.2497-20.9383-4.4018-41.2604-12.4979-60.7064-6.1028-14.6583-14.0333-28.228-23.8251-40.6843-3.7384-4.7557-7.949-9.1482-12.0524-13.6069-3.6433-3.9588-4.4322-9.7255-1.8503-15.0728,2.2067-4.5703,6.909-6.5848,12.3119-6.6835,5.6693-.1035,9.0818,3.186,12.0457,6.891,7.8843,9.8557,15.978,19.6245,22.9264,30.13,11.6539,17.6199,19.3158,37.0965,24.15,57.6738,3.4011,14.4771,5.3265,29.0945,4.3531,43.672Z"/>
  <path class="cls-2" d="m221.2999,184.479c0,17.1121-.1548,34.2264.0783,51.3353.0897,6.5876-7.5054,14.5523-16.2322,11.0761-6.8077-2.7117-10.0889-7.3699-10.0892-14.7724-.0014-32.6005-.009-65.2009.0073-97.8014.003-6.0232,4.8885-12.6059,9.9779-13.583,6.8036-1.3063,12.9786,1.7121,15.544,7.7457.5062,1.1906.6817,2.603.685,3.914.0435,17.3618.0291,34.7238.0291,52.0857Z"/>
  <path class="cls-2" d="m221.2999,286.1685c-.0003,7.8172-5.059,13.0364-12.6637,13.0652-7.3293.0278-13.8133-5.9672-13.4932-13.084.3144-6.9879,5.1994-13.0866,13.3242-13.3037,6.6398-.1775,14.1695,6.1163,12.8326,13.3226Z"/>
</svg>