<?xml version="1.0" encoding="UTF-8"?>
<svg id="Layer_1" data-name="Layer 1" xmlns="http://www.w3.org/2000/svg" viewBox="0 0 384.058 384">
  <path d="m210.3392.7485c1.1205,1.1648,2.567,1.3941,4.0938,1.5346,24.0729,2.2164,46.4899,9.815,67.7194,21.1073,6.5943,3.5076,8.7652,10.4113,5.6513,16.4912-3.0819,6.0175-10.1718,8.5697-16.5907,5.5153-14.2312-6.7718-28.7584-12.5535-44.3178-15.5819-51.6937-10.0611-98.2414,1.6417-139.0395,34.389-30.737,24.6716-49.5756,57.1519-57.5867,95.8483-3.4955,16.8844-4.3616,33.928-2.3484,50.9614,4.3766,37.0295,19.0365,69.4539,44.8629,96.6074,2.3323,2.4522,4.6153,4.946,5.3442,8.4079,1.1383,5.4067-1.2169,10.6675-5.9647,13.4027-4.8306,2.783-10.9248,2.0424-15.2068-2.0211-7.6282-7.2389-14.2066-15.4018-20.3517-23.8957-12.5356-17.3271-21.8047-36.3462-27.9382-56.7824-3.2145-10.7102-6.0337-21.6107-6.4629-32.9219-.0673-1.7735-.485-3.4545-1.4549-4.9687,0-10.7291,0-21.4581,0-32.1871.4778-2.185,1.0734-4.3519,1.4101-6.5584.8418-5.516,1.2528-11.1153,2.3921-16.5651,4.7608-22.7736,13.2306-44.0665,25.7998-63.7121C53.717,53.2975,85.7373,27.5028,126.3093,12.3562c14.2839-5.3326,29.0437-8.8189,44.2752-10.1213,1.6434-.1405,3.1794-.5891,4.5733-1.4863h35.1813Z"/>
  <path d="m193.5568,383.1992c-23.0482.6309-44.4385-3.2817-65.2002-10.5227-8.8094-3.0724-17.5111-6.6275-25.5937-11.4003-4.4215-2.6109-6.785-6.8168-6.4179-11.8797.3841-5.2974,3.6252-8.909,8.6264-10.7649,3.9585-1.469,7.6577-.294,11.1334,1.558,9.8468,5.2471,20.2139,9.16,30.9179,12.1991,24.6213,6.9905,49.4915,8.4348,74.7613,3.8181,30.442-5.5617,57.3503-18.3629,80.5691-38.7337,18.7377-16.4393,33.0158-36.159,43.0429-59.0835,9.0446-20.6781,13.1504-42.3282,13.7607-64.6732.4277-15.661-2.2179-31.043-6.3343-46.1516-7.4731-27.4288-21.4376-51.1127-41.1852-71.4784-5.7641-5.9445-5.896-12.7861-.5167-18.2829,4.9516-5.0597,12.3746-4.8409,17.9896.7944,22.7497,22.8322,38.3574,49.8704,47.4354,80.7585,7.571,25.7606,9.3015,52.0276,5.7236,78.486-5.8835,43.5082-24.7755,80.6738-56.1907,111.4403-25.4139,24.889-55.5017,41.3054-90.0607,49.3699-14.2278,3.3201-28.7115,5.2967-42.461,4.5465Z"/>
  <path d="m204.8272,166.9239c0,16.4663-.0008,32.9326.0003,49.3989.0006,8.0253-4.9342,13.6268-12.155,13.7925-7.3842.1694-12.7989-5.4086-12.8121-13.5374-.0524-32.4359-.0195-64.872-.0176-97.308.0001-2.0036.1534-3.9858.7489-5.9172,1.7461-5.6637,7.6627-9.6857,13.1438-8.9212,6.145.8571,10.9876,6.1653,11.0083,12.3423.0559,16.7165.0192,33.4334.0192,50.1501.0214,0,.0428,0,.0642,0Z"/>
  <path d="m204.8285,269.3332c-.0553,6.5703-5.6689,12.0256-12.3023,11.9553-6.795-.072-12.543-5.5019-12.5312-11.838.0127-6.8724,5.3697-12.7934,11.5584-12.7754,7.6904.0224,13.3361,5.4057,13.2751,12.6581Z"/>
</svg>