<?xml version="1.0" encoding="UTF-8"?>
<svg id="Layer_1" data-name="Layer 1" xmlns="http://www.w3.org/2000/svg" viewBox="0 0 190.5 193.5">
  <defs>
    <style>
      .cls-1 {
        fill: #d85d2b;
      }

      .cls-2 {
        fill: #d6b4ab;
      }

      .cls-3 {
        fill: #d47a5d;
      }

      .cls-4 {
        fill: #d6b2a8;
      }

      .cls-5 {
        fill: #df4807;
      }

      .cls-6 {
        fill: #fefeff;
      }

      .cls-7 {
        fill: #d47c61;
      }

      .cls-8 {
        fill: #dab7ad;
      }

      .cls-9 {
        fill: #d7b4aa;
      }

      .cls-10 {
        fill: #de4707;
      }

      .cls-11 {
        fill: #df4706;
      }

      .cls-12 {
        fill: #d6876f;
      }

      .cls-13 {
        fill: #de4807;
      }

      .cls-14 {
        fill: #df4707;
      }
    </style>
  </defs>
  <path class="cls-6" d="m0,0h190.5v193.5H0C0,129,0,64.5,0,0Zm54.7526,56.0795c-.0638.0019-.1277.0037-.1915.0056-2.8282.0856-5.9576,2.4585-5.8217,5.8482.0392.978.1799,1.8227.6709,2.7619,1.1267,2.1554,2.9254,3.0835,5.1341,3.2527,2.2346.1712,4.4931.0093,6.7402.0483,1.4153.0245,2.8587.0867,4.0296-.8085.993-.7592,2.1227-1.5668,2.6643-2.6217.526-1.0246.8858-2.1849.5869-3.6345-.539-2.6139-3.3048-4.8427-6.1349-4.8853-2.5585-.0385-5.1185.0185-7.6778.0334Zm83.4154,24.0156c-.358.075-.7135.1648-1.0743.2228-2.9622.476-5.2325,3.6766-5.0452,6.0514.0767.9721.4875,2.0012,1.0138,2.8372,1.0046,1.5956,2.45,2.6782,4.4603,2.6826,5.7133.0125,11.4278-.0613,17.1394.0379,2.1804.0379,3.6419-.9723,4.9553-2.4746.6667-.7626.9113-1.6084.904-2.6393-.0431-6.0953-.0212-12.191-.0212-18.2866,0-2.041-2.3725-4.7079-4.3956-5.0076-2.5777-.3818-4.5583.5254-6.0919,2.5898-.526.708-.7895,1.4154-.7792,2.3097.0401,3.4827.0164,6.9662.0163,10.4494q0,1.2911-1.3028,1.2238c-.1695-.0525-.3389-.1503-.5084-.1506-2.885-.0052-5.77-.0013-8.655.0122-.2054.001-.4103.0924-.6155.1418Zm-17.9673-36.0507c2.0251.2255,4.0179-.1075,5.704-1.1449,2.5031-1.5399,4.0691-4.5383,2.2058-7.8197-1.0174-1.7917-2.5498-2.917-4.6475-2.9364-5.6506-.0522-11.3034.0546-16.9524-.0529-2.3163-.0441-3.876.9901-5.2361,2.6473-.5622.685-.7948,1.4093-.7904,2.3035.0301,6.0645.0395,12.1295-.0059,18.1938-.0083,1.108.1138,2.1212.9507,2.8657.9643.8578,1.9078,1.9481,3.0641,2.3385,2.3476.7925,4.927-.3896,6.4692-2.4642.5658-.7612.8233-1.5292.8072-2.4875-.0517-3.0781-.0192-6.1577-.0192-9.2367,0-.7053,0-1.4105,0-2.2067h2.7987c1.884,0,3.7679,0,5.6519,0Zm3.5294,104.7873c-.6808.1882-1.3506.4606-2.0442.5507-3.7925.4924-5.2479,6.0705-3.0032,8.8157,1.2135,1.484,2.6279,2.4949,4.8136,2.4741,10.53-.1002,21.0615-.0449,31.5925-.0472.3425,0,.7113.0506,1.0235-.0537,2.5994-.8689,4.3863-3.4006,4.3864-6.1737.001-15.5331-.0066-31.0663.0125-46.5994.0017-1.3855-.1953-2.6904-.8547-3.9168-1.0078-1.8746-2.6031-2.9913-4.7019-2.9972-16.1557-.0453-32.3117.0041-48.4673-.0584-2.2359-.0086-3.7711.9369-5.1168,2.5195-.6373.7494-.8923,1.5548-.8895,2.5535.0301,10.7704.0351,21.5409-.0053,32.3113-.0042,1.1222.1568,2.1202.9894,2.8546.9665.8525,1.9358,2.0171,3.0834,2.2861,2.5311.5933,4.7774-.2496,6.402-2.4393.5644-.7607.8226-1.5249.8187-2.4864-.0334-8.1867-.0191-16.3735-.0191-24.5603v-1.0885c1.128,0,2.1525,0,3.177,0,3.274.0128,6.5481.0376,9.8221.0359,7.8574-.0041,15.7147-.0207,23.5721-.0323.0597.3165.1714.633.1716.9496.0089,11.2906.0074,22.5812.0071,33.8717q0,1.2906-1.3023,1.2248c-.2641-.0511-.5281-.1465-.7922-.1468-7.2285-.0072-14.4571-.0067-21.6856.0029-.33.0004-.6599.0976-.9898.1497Zm-58.6458-68.7297c-.3006-.0482-.6011-.1377-.9018-.1385-6.7611-.0164-13.5222-.0249-20.2833-.0249-.2627,0-.5254.0999-.7881.1532h-2.5578v-36.0503h3.1243c1.2777.0125,2.5554.0368,3.8331.0357,8.353-.0069,16.706-.0194,25.059-.03h4.6802c0,.4889,0,.8282,0,1.1675,0,8.0927.0317,16.1857-.0331,24.278-.0101,1.2609.3225,2.2723,1.1997,3.0575.8897.7964,1.8272,1.8394,2.8988,2.0751,2.591.5701,4.8286-.3045,6.4467-2.5419.5193-.7181.7564-1.4266.7544-2.3177-.0249-10.9563-.0155-21.9126-.0197-32.869-.0001-.3701.0243-.7656-.0912-1.106-.5943-1.7514-3.3296-3.6628-5.2179-3.6632-16.467-.0033-32.9339-.0024-49.4009.0019-.3083,0-.6493-.0181-.92.0988-2.5895,1.119-4.331,2.677-4.3433,6.1716-.0538,15.3138-.0129,30.6279-.0386,45.9418-.0026,1.5628.1084,3.0317.8242,4.4802.755,1.5279,2.8332,3.071,4.5326,3.0711,10.6238.0005,21.2477.0004,31.8715.0003,3.1046,0,5.5371-2.4083,5.5369-5.4806,0-.3735-.0416-.7525.0073-1.1196.213-1.6001-1.5554-4.026-3.3227-4.5225-.9386-.2637-1.8995-.4484-2.8503-.6688Zm23.4156,50.6273c0-8.3704.0011-16.7408-.0036-25.1112-.0002-.3698.0226-.7658-.0951-1.1048-.6122-1.7629-3.3286-3.6518-5.2239-3.6521-16.4621-.003-32.9242-.0022-49.3862.002-.3084,0-.65-.0203-.9201.0969-2.5808,1.1205-4.3335,2.6495-4.3464,6.1668-.0566,15.3403-.0144,30.681-.0393,46.0215-.0025,1.5641.1225,3.031.8579,4.4706.7598,1.4874,2.8239,3.0077,4.4758,3.0078,16.1497.0004,32.2996-.04,48.4489.0422,2.5432.0129,4.3006-.9846,5.639-2.9444.3412-.4996.5657-1.1879.5683-1.7907.0362-8.4014.0246-16.8029.0247-25.2045ZM173.25,17.9303c0,.4598,0,.7987,0,1.1376,0,11.1735.028,22.3472-.035,33.5203-.008,1.4264.1851,2.7154,1.1454,3.7103.7542.7814,1.7131,1.7603,2.6696,1.8674,1.6715.1871,3.4932.5941,5.0916-.6755,1.3496-1.0721,2.3748-2.2432,2.3755-4.0425.0054-13.7257-.0121-27.4514.0276-41.1769.0037-1.2877-.1594-2.4202-.9914-3.4332-.9971-1.2139-2.1456-2.115-3.8159-2.1148-13.8101.002-27.6203.0207-41.4302-.0301-1.3234-.0049-2.5449.1845-3.4432,1.0567-.8404.816-1.8099,1.8474-1.9932,2.909-.3021,1.7493-.5027,3.6886.9162,5.2373.9758,1.065,1.9853,2.0386,3.5808,2.0378,11.5605-.0058,23.121-.0032,34.6815-.0032h1.2205Zm-.0002,156.892c-.4469,0-.7855,0-1.124,0-11.2797,0-22.5594.0238-33.8388-.0315-1.3239-.0065-2.545.1853-3.4433,1.0573-.8404.8158-1.8097,1.8474-1.9929,2.909-.3019,1.7493-.5029,3.6888.9166,5.2374.9761,1.0648,1.9854,2.0381,3.5811,2.0375,13.8106-.0054,27.6211-.0056,41.4317.0014,1.1752.0006,2.2843.035,3.3277-.7746,1.3662-1.0601,2.3845-2.2483,2.386-4.0373.0114-13.7572.0044-27.5145.0097-41.2717.0004-1.0781-.0193-2.0631-.7422-3.0434-.7762-1.0527-1.654-1.9341-2.8644-2.222-2.0552-.4889-4.1701-.5515-5.864,1.0169-1.0484.9707-1.8129,2.1087-1.8067,3.7124.0442,11.4227.0236,22.8456.0236,34.2685,0,.3391,0,.6782,0,1.1401ZM15.75,17.9304c.4306,0,.7672,0,1.1039,0,11.3082,0,22.6164.0006,33.9246-.0009,1.0424-.0001,1.9924-.0191,2.9773-.6955,1.1267-.7738,1.9982-1.7205,2.2688-2.9182.3987-1.764.6733-3.613-.6156-5.282-1.0355-1.3409-2.2082-2.3094-3.9865-2.3095-13.776-.0006-27.5521.0153-41.328-.0255-1.3051-.0039-2.473.1824-3.4749.999-1.2066.9836-2.1307,2.1226-2.1288,3.8213.0157,13.6917.0326,27.3835-.0264,41.075-.0062,1.4281.1941,2.7136,1.1495,3.7079.752.7826,1.7152,1.76,2.6711,1.8643,1.6714.1824,3.4953.5983,5.0908-.6783,1.3154-1.0525,2.3621-2.1935,2.3664-3.9507.0182-7.4682.0077-14.9364.0077-22.4046,0-4.3551,0-8.7102,0-13.2022Zm0,156.892v-1.1232c0-11.2336-.0031-22.4673.0048-33.7009.0008-1.1112-.0039-2.1318-.763-3.1318-.7678-1.0115-1.6256-1.8875-2.7966-2.171-2.0839-.5045-4.2267-.5677-5.9424,1.0368-1.0457.9779-1.7838,2.1218-1.7786,3.725.0445,13.5985.0415,27.1973.0015,40.7958-.0041,1.3949.0782,2.6788,1.0552,3.7516.9693,1.0644,1.9827,2.0306,3.5846,2.0295,13.9013-.0094,27.8025-.0046,41.7038-.007,1.0098-.0002,1.9205-.0351,2.8888-.6711,1.2353-.8113,2.1612-1.8646,2.4124-3.1354.3841-1.9429.4904-4.0224-1.1155-5.6532-1.0188-1.0346-2.1519-1.764-3.7204-1.7602-11.4646.0279-22.9293.015-34.3939.015-.34,0-.68,0-1.1407,0Zm98.2682-102.1859c-.2906,1.7873.7047,3.0783,1.8658,4.2938,1.5407,1.6129,3.5808,1.9361,5.5083,1.3899,1.3166-.3731,2.5089-1.4868,3.5433-2.4882,3.964-3.8374,7.8405-7.7646,11.7522-11.6556,2.7627-2.7481,5.5457-5.4761,8.2902-8.2421,2.6625-2.6834,2.7184-6.0492.5248-8.4941-1.599-1.7822-3.7013-2.2987-5.8785-1.7174-1.1854.3165-2.2946,1.2595-3.2174,2.1475-3.4378,3.3078-6.784,6.7101-10.1649,10.0765-3.2926,3.2785-6.6161,6.5268-9.8632,9.8494-1.2855,1.3153-2.6675,2.6653-2.3605,4.8404Zm16.4818,64.0837c1.3749,0,2.7497.0006,4.1246-.0002,1.1041-.0006,2.1242-.0002,3.1613-.7117,1.1007-.7551,1.9389-1.6919,2.2334-2.8464.531-2.0811.6283-4.2364-1.0722-5.9675-.993-1.0109-2.124-1.7212-3.657-1.6966-3.2176.0516-6.4399.104-9.6539-.0151-2.1772-.0807-4.5384,2.1094-4.7582,3.774-.2071,1.569-.6116,3.2529.5661,4.8684,1.191,1.6338,2.4522,2.7002,4.5569,2.6078,1.4969-.0657,2.9992-.0128,4.499-.0128Z"/>
  <path class="cls-10" d="m88.4999,130.7293c0,8.4015.0117,16.8031-.0246,25.2045-.0026.6028-.2271,1.2911-.5683,1.7907-1.3384,1.9598-3.0958,2.9573-5.639,2.9444-16.1493-.0822-32.2992-.0417-48.4489-.0422-1.6519,0-3.716-1.5204-4.4758-3.0078-.7354-1.4396-.8605-2.9065-.8579-4.4706.0248-15.3405-.0173-30.6812.0393-46.0215.013-3.5172,1.7656-5.0463,4.3464-6.1668.2701-.1173.6117-.0968.9201-.0969,16.4621-.0042,32.9242-.005,49.3862-.002,1.8952.0004,4.6116,1.8892,5.2239,3.6521.1178.339.0949.7351.0951,1.1048.0047,8.3704.0036,16.7408.0035,25.1112Zm-45.3891,18.0974c3.6172.011,7.2344.0329,10.8516.0307,7.3904-.0044,14.7808-.0219,22.1712-.0339.8418.1603,1.1349-.1497,1.1329-1.0318-.0253-11.3765-.0164-22.753-.0186-34.1295,0-.2691-.0289-.5383-.0485-.8809h-4.6287c-.2956-.0523-.5911-.15-.8868-.1503-9.0722-.01-18.1445-.0118-27.2167-.0059-.2633.0002-.5264.0979-.7897.1502h-3.1265v36.0514h2.5597Z"/>
  <path class="cls-10" d="m43.6777,44.0417h-3.1243v36.0503c.841,0,1.6994,0,2.5578,0,3.616.0108,7.2319.0289,10.8478.0305,3.7084.0016,7.4169-.0129,11.1254-.0204.9508.2204,1.9117.4051,2.8503.6688,1.7673.4965,3.5357,2.9225,3.3227,4.5225-.0489.3671-.0073.7461-.0073,1.1196.0002,3.0723-2.4323,5.4805-5.5369,5.4806-10.6238.0002-21.2477.0002-31.8715-.0003-1.6994,0-3.7776-1.5432-4.5326-3.0711-.7158-1.4485-.8268-2.9174-.8242-4.4802.0257-15.3139-.0151-30.628.0386-45.9418.0123-3.4947,1.7538-5.0527,4.3433-6.1716.2706-.1169.6116-.0988.92-.0988,16.467-.0043,32.9339-.0052,49.4009-.0019,1.8883.0004,4.6236,1.9117,5.2179,3.6632.1155.3404.091.7359.0912,1.106.0043,10.9563-.0052,21.9127.0197,32.869.002.891-.2351,1.5996-.7544,2.3177-1.6181,2.2374-3.8557,3.112-6.4467,2.5419-1.0716-.2358-2.0091-1.2787-2.8988-2.0751-.8771-.7852-1.2098-1.7966-1.1997-3.0575.0648-8.0922.0331-16.1852.0331-24.278,0-.3393,0-.6786,0-1.1675h-4.6802c-.2956-.0522-.5911-.1497-.8868-.15-9.0719-.01-18.1437-.0118-27.2156-.0059-.2633.0002-.5264.0979-.7896.1502Z"/>
  <path class="cls-10" d="m114.9272,112.7762h-3.177v1.0885c0,8.1868-.0144,16.3737.0191,24.5603.0039.9614-.2543,1.7256-.8187,2.4864-1.6246,2.1898-3.8709,3.0326-6.402,2.4393-1.1476-.269-2.1169-1.4336-3.0834-2.2861-.8326-.7344-.9936-1.7324-.9894-2.8546.0404-10.7703.0354-21.5409.0053-32.3113-.0028-.9987.2522-1.804.8895-2.5535,1.3457-1.5826,2.881-2.5281,5.1168-2.5195,16.1556.0625,32.3116.0131,48.4673.0584,2.0989.0059,3.6941,1.1226,4.7019,2.9972.6594,1.2264.8564,2.5314.8547,3.9168-.0191,15.5331-.0115,31.0662-.0125,46.5994-.0002,2.7731-1.787,5.3048-4.3864,6.1737-.3123.1044-.681.0537-1.0235.0537-10.531.0023-21.0625-.053-31.5925.0472-2.1857.0208-3.6001-.9901-4.8136-2.4741-2.2447-2.7452-.7893-8.3233,3.0032-8.8157.6936-.0901,1.3634-.3625,2.0443-.5507.7161.01,1.4322.0295,2.1482.0285,7.1064-.0095,14.2129-.0224,21.3193-.0343q1.3013.0658,1.3023-1.2248c.0003-11.2906.0018-22.5812-.0071-33.8717-.0003-.3166-.1119-.6331-.1716-.9496-.3294-.0536-.6588-.1536-.9882-.1539-10.57-.0087-21.14-.0088-31.7101-.0017-.232.0001-.4639.0991-.6959.152Z"/>
  <path class="cls-14" d="m173.25,17.9303h-1.2205c-11.5605,0-23.121-.0026-34.6815.0032-1.5955.0008-2.605-.9727-3.5808-2.0378-1.419-1.5487-1.2183-3.4881-.9162-5.2373.1833-1.0616,1.1528-2.093,1.9932-2.909.8983-.8722,2.1198-1.0615,3.4432-1.0567,13.8099.0508,27.6201.0321,41.4302.0301,1.6703-.0002,2.8188.9009,3.8159,2.1148.832,1.0129.9951,2.1454.9914,3.4332-.0397,13.7256-.0222,27.4513-.0276,41.1769-.0007,1.7993-1.0259,2.9705-2.3755,4.0425-1.5984,1.2697-3.4201.8626-5.0916.6755-.9564-.1071-1.9154-1.086-2.6696-1.8674-.9603-.9949-1.1534-2.2839-1.1454-3.7103.063-11.1732.0349-22.3468.035-33.5203,0-.3389,0-.6777,0-1.1376Z"/>
  <path class="cls-14" d="m173.2498,174.8223c0-.4619,0-.801,0-1.1401,0-11.4229.0206-22.8458-.0236-34.2685-.0062-1.6037.7583-2.7417,1.8067-3.7124,1.6939-1.5683,3.8088-1.5057,5.864-1.0169,1.2104.2879,2.0882,1.1693,2.8644,2.222.7229.9804.7426,1.9654.7422,3.0434-.0053,13.7572.0017,27.5145-.0097,41.2717-.0015,1.789-1.0197,2.9772-2.386,4.0373-1.0434.8096-2.1525.7752-3.3277.7746-13.8106-.0071-27.6211-.0069-41.4317-.0014-1.5958.0006-2.6051-.9727-3.5811-2.0375-1.4195-1.5486-1.2185-3.4881-.9166-5.2374.1832-1.0615,1.1525-2.0931,1.9929-2.909.8983-.8721,2.1194-1.0638,3.4433-1.0573,11.2794.0553,22.5592.0316,33.8388.0315.3385,0,.6771,0,1.124,0Z"/>
  <path class="cls-14" d="m15.75,17.9304c0,4.4921,0,8.8472,0,13.2022,0,7.4682.0105,14.9364-.0077,22.4046-.0043,1.7573-1.051,2.8983-2.3664,3.9507-1.5955,1.2766-3.4195.8608-5.0908.6783-.9559-.1043-1.9191-1.0818-2.6711-1.8643-.9554-.9942-1.1557-2.2797-1.1495-3.7079.0591-13.6915.0422-27.3833.0264-41.075-.002-1.6987.9221-2.8377,2.1288-3.8213,1.0019-.8167,2.1698-1.0029,3.4749-.999,13.7759.0408,27.552.0249,41.328.0255,1.7783,0,2.9509.9686,3.9865,2.3095,1.2889,1.669,1.0142,3.518.6156,5.282-.2707,1.1977-1.1421,2.1444-2.2688,2.9182-.9848.6764-1.9349.6953-2.9773.6955-11.3082.0015-22.6164.0009-33.9246.0009-.3366,0-.6733,0-1.1039,0Z"/>
  <path class="cls-11" d="m15.7501,174.8224c.4607,0,.8007,0,1.1407,0,11.4646,0,22.9293.0129,34.3939-.015,1.5685-.0038,2.7016.7256,3.7204,1.7602,1.6059,1.6308,1.4996,3.7103,1.1155,5.6532-.2512,1.2708-1.1771,2.3241-2.4124,3.1354-.9683.636-1.879.671-2.8888.6711-13.9013.0024-27.8025-.0024-41.7038.007-1.6019.0011-2.6153-.9652-3.5846-2.0295-.977-1.0728-1.0593-2.3567-1.0552-3.7516.04-13.5985.0431-27.1973-.0015-40.7958-.0053-1.6032.7328-2.7471,1.7786-3.725,1.7157-1.6045,3.8585-1.5413,5.9424-1.0368,1.171.2835,2.0288,1.1595,2.7966,2.171.7591,1,.7638,2.0206.763,3.1318-.0079,11.2336-.0048,22.4673-.0048,33.7009v1.1232Z"/>
  <path class="cls-13" d="m114.5488,44.0444h-2.7987c0,.7962,0,1.5014,0,2.2067,0,3.079-.0324,6.1585.0192,9.2367.0161.9583-.2414,1.7263-.8072,2.4875-1.5422,2.0746-4.1216,3.2567-6.4692,2.4642-1.1563-.3903-2.0998-1.4807-3.0641-2.3385-.8369-.7444-.959-1.7576-.9507-2.8657.0454-6.0644.036-12.1293.0059-18.1938-.0045-.8941.2282-1.6184.7904-2.3035,1.3601-1.6572,2.9198-2.6914,5.2361-2.6473,5.649.1075,11.3018.0007,16.9524.0529,2.0978.0194,3.6301,1.1447,4.6475,2.9364,1.8633,3.2813.2973,6.2797-2.2058,7.8197-1.6862,1.0374-3.679,1.3704-5.7041,1.1449-1.128-.0475-2.2557-.1238-3.384-.1323-.7556-.0057-1.5119.0848-2.2679.1322Z"/>
  <path class="cls-13" d="m147.9469,80.0918q1.3025.0673,1.3028-1.2238c.0002-3.4832.0239-6.9666-.0163-10.4494-.0103-.8943.2533-1.6017.7792-2.3097,1.5336-2.0644,3.5141-2.9716,6.0919-2.5898,2.0231.2997,4.3956,2.9666,4.3956,5.0076,0,6.0956-.0219,12.1913.0212,18.2866.0073,1.0309-.2373,1.8767-.904,2.6393-1.3134,1.5023-2.775,2.5125-4.9553,2.4746-5.7116-.0992-11.4261-.0254-17.1394-.0379-2.0103-.0044-3.4557-1.087-4.4603-2.6826-.5263-.836-.9371-1.8651-1.0138-2.8372-.1872-2.3749,2.083-5.5754,5.0452-6.0514.3607-.058.7163-.1477,1.0744-.2228,3.2597-.0011,6.5192-.0022,9.7787-.0034Z"/>
  <path class="cls-13" d="m114.0183,72.6365c-.307-2.1751,1.075-3.5251,2.3605-4.8404,3.2471-3.3226,6.5706-6.5709,9.8632-9.8494,3.3809-3.3664,6.7271-6.7687,10.1649-10.0765.9229-.888,2.032-1.831,3.2174-2.1475,2.1772-.5813,4.2795-.0648,5.8785,1.7174,2.1936,2.445,2.1377,5.8107-.5248,8.4941-2.7445,2.766-5.5275,5.494-8.2902,8.2421-3.9118,3.891-7.7882,7.8182-11.7522,11.6556-1.0344,1.0014-2.2267,2.1151-3.5433,2.4882-1.9275.5462-3.9675.223-5.5083-1.3899-1.1611-1.2155-2.1564-2.5065-1.8658-4.2938Z"/>
  <path class="cls-13" d="m54.7526,56.0795c2.5593-.0149,5.1193-.0719,7.6778-.0334,2.8301.0426,5.5959,2.2714,6.1349,4.8853.2989,1.4496-.0609,2.6099-.5869,3.6345-.5416,1.055-1.6713,1.8625-2.6643,2.6217-1.1709.8952-2.6143.833-4.0296.8085-2.2471-.0389-4.5056.1229-6.7402-.0483-2.2088-.1692-4.0074-1.0973-5.1341-3.2527-.4909-.9392-.6316-1.7839-.6709-2.7619-.1359-3.3897,2.9935-5.7626,5.8217-5.8482.0639-.0019.1277-.0037.1915-.0056Z"/>
  <path class="cls-5" d="m130.5001,136.7201c-1.4999,0-3.0021-.053-4.499.0128-2.1047.0924-3.3659-.974-4.5569-2.6078-1.1777-1.6155-.7732-3.2995-.5661-4.8684.2198-1.6646,2.581-3.8547,4.7582-3.774,3.214.1191,6.4363.0666,9.6539.0151,1.533-.0246,2.664.6858,3.657,1.6966,1.7005,1.7311,1.6032,3.8864,1.0722,5.9675-.2945,1.1545-1.1327,2.0912-2.2334,2.8464-1.0371.7114-2.0571.7111-3.1613.7117-1.3749.0008-2.7497.0002-4.1246.0002Z"/>
  <path class="cls-7" d="m114.9272,112.7762c.232-.0529.4639-.1519.6959-.152,10.57-.0071,21.14-.007,31.7101.0017.3294.0003.6588.1004.9882.1539-7.8573.0115-15.7147.0281-23.572.0323-3.274.0017-6.5481-.0231-9.8221-.0359Z"/>
  <path class="cls-3" d="m43.6777,44.0417c.2632-.0523.5264-.15.7896-.1502,9.0719-.0059,18.1437-.0041,27.2156.0059.2956.0003.5912.0978.8868.15-8.353.0106-16.706.0231-25.059.03-1.2777.0011-2.5554-.0232-3.8331-.0357Z"/>
  <path class="cls-9" d="m147.1977,148.826c-7.1064.0119-14.2129.0248-21.3193.0343-.716.001-1.432-.0186-2.1482-.0285.3298-.0521.6597-.1492.9897-.1497,7.2285-.0096,14.4571-.0101,21.6856-.0029.2641.0003.5281.0957.7922.1468Z"/>
  <path class="cls-2" d="m65.0844,80.102c-3.7085.0075-7.4169.022-11.1254.0204-3.6159-.0016-7.2319-.0197-10.8478-.0305.2627-.0533.5254-.1532.7881-.1532,6.7611,0,13.5222.0084,20.2833.0249.3007.0007.6012.0903.9018.1385Z"/>
  <path class="cls-8" d="m147.9469,80.0918c-3.2595.0011-6.5191.0022-9.7787.0034.205-.0494.41-.1408.6153-.1418,2.885-.0135,5.77-.0174,8.655-.0122.1696.0003.339.0982.5084.1506Z"/>
  <path class="cls-12" d="m114.5488,44.0444c.756-.0474,1.5123-.1379,2.2679-.1322,1.1283.0085,2.256.0848,3.384.1323-1.8839,0-3.7679,0-5.6519,0Z"/>
  <path class="cls-1" d="m54.7526,56.0795c-.0638.0019-.1277.0037-.1915.0056.0638-.0019.1277-.0037.1915-.0056Z"/>
  <path class="cls-6" d="m72.5708,112.7812h4.6287c.0196.3426.0485.6117.0485.8809.0022,11.3765-.0067,22.7531.0186,34.1295.002.8821-.2912,1.1921-1.1329,1.0319-.2949-.0506-.5898-.1454-.8848-.1456-10.4185-.0089-20.837-.0103-31.2555-.0037-.2942.0002-.5884.0994-.8826.1525-.8361,0-1.6722,0-2.5597,0v-36.0514c1.0341,0,2.0803,0,3.1265,0,1.2777.0125,2.5555.0367,3.8332.0357,8.3533-.0069,16.7066-.0192,25.0599-.0297Zm-14.0591,23.9389c1.3748,0,2.7496.0051,4.1243-.0016,1.1016-.0054,2.1261.0187,3.1614-.7143,1.0838-.7674,1.9323-1.6925,2.2256-2.8523.5272-2.0843.6189-4.2378-1.0828-5.965-.9688-.9833-2.0694-1.7071-3.5662-1.686-2.9989.0421-5.9999.058-8.9979-.0089-1.2609-.0282-2.3613.1923-3.4155.9113-1.0917.7446-1.9493,1.7912-2.119,2.9542-.2677,1.8339-.5047,3.8252.9873,5.407.9886,1.0481,2.0128,2.0053,3.6214,1.9651,1.6862-.0422,3.3742-.0094,5.0614-.0094Z"/>
  <path class="cls-4" d="m43.1108,148.8267c.2942-.0531.5884-.1523.8826-.1525,10.4185-.0067,20.837-.0053,31.2555.0037.295.0003.5899.095.8848.1456-7.3905.012-14.7809.0295-22.1713.0339-3.6172.0022-7.2344-.0197-10.8516-.0307Z"/>
  <path class="cls-3" d="m72.5708,112.7812c-8.3533.0105-16.7066.0229-25.0599.0297-1.2777.001-2.5555-.0232-3.8332-.0357.2632-.0523.5264-.15.7897-.1502,9.0722-.006,18.1445-.0042,27.2167.0059.2956.0003.5912.098.8868.1503Z"/>
  <path class="cls-5" d="m58.5116,136.7201c-1.6872,0-3.3753-.0328-5.0614.0094-1.6085.0403-2.6328-.917-3.6214-1.9651-1.492-1.5818-1.255-3.5731-.9873-5.407.1698-1.163,1.0273-2.2097,2.119-2.9542,1.0543-.719,2.1547-.9395,3.4155-.9113,2.998.067,5.999.0511,8.9979.0089,1.4968-.021,2.5974.7027,3.5662,1.686,1.7017,1.7272,1.61,3.8807,1.0828,5.965-.2933,1.1598-1.1418,2.0849-2.2256,2.8523-1.0353.733-2.0598.7089-3.1614.7143-1.3748.0067-2.7496.0016-4.1243.0016Z"/>
</svg>