<?xml version="1.0" encoding="UTF-8"?>
<svg id="Layer_1" data-name="Layer 1" xmlns="http://www.w3.org/2000/svg" viewBox="0 0 115.2043 90.1964">
  <defs>
    <style>
      .cls-1 {
        fill: #fff;
      }
    </style>
  </defs>
  <g>
    <path d="m.1189,83.7869c-.4501-2.8697.2546-5.04,4.2558-5.8913,4.5705-.9725,4.5382-5.2848,4.6049-8.9113.1681-9.1383-.0995-18.2872.1818-27.4203.2924-9.491,5.402-15.6907,13.7285-17.0398,2.2347-.3621,5.631-1.6841,6.0256,2.0553.3331,3.1561,2.3076,7.6082-3.4756,8.7392-4.3971.8599-4.9848,4.4334-5.0176,8.0739-.0794,8.8082.0403,17.6186-.0747,26.4261-.1186,9.0839-3.4384,15.9721-12.7141,19.2843-6.0212,2.1501-7.5113,1.4993-7.5147-5.3161Z"/>
    <path d="m86.3074,36.8847c0,10.4696-.1813,20.9437.0833,31.4066.1167,4.6148-2.2055,5.0162-5.852,5.0386-3.7708.0233-5.7889-.7151-5.7527-5.1753.1728-21.27.1734-42.5433-.0235-63.813C74.7225.0236,76.9713-.0837,80.0575.0219c3.1192.1068,6.4245-.6887,6.3143,4.4585-.2312,10.797-.0702,21.6023-.0644,32.4042Z"/>
    <path d="m115.1432,55.3419c0,4.6504-.0892,9.3031.0272,13.9506.0999,3.9886-2.4709,4.0724-5.3169,3.9599-2.8834-.1139-6.3238.7917-6.2994-4.012.0406-7.9717.0649-15.9456-.0769-23.9155-.1433-8.0502-1.0635-9.2848-8.871-10.2272-4.8781-.5888-3.3791-3.9422-3.6502-6.6525-.3137-3.1373,1.0876-4.393,4.2728-4.5894,11.5024-.7094,19.2243,6.1159,19.8587,18.0355.238,4.4715.0386,8.9664.0386,13.4506.0057,0,.0114,0,.0171,0Z"/>
    <path d="m41.3757,56.2092c.0618-5.9715-.3083-11.9594.8029-17.8874,1.5197-8.1074,7.0844-13.516,14.6269-14.0295,1.9155-.1304,4.5694-.5937,4.5506,2.3212-.0183,2.8369,2.1817,7.0071-2.0697,8.2101-5.2113,1.4746-6.1372,4.8507-6.1057,9.371.0569,8.1373-.1536,16.2795.0616,24.4113.1163,4.3963-2.294,4.7718-5.6838,4.6878-3.2787-.0812-6.4963.3232-6.2183-4.6317.2322-4.1389.0476-8.3011.0354-12.453Z"/>
  </g>
  <g>
    <path class="cls-1" d="m.1189,83.7869c-.4501-2.8697.2546-5.04,4.2558-5.8913,4.5705-.9725,4.5382-5.2848,4.6049-8.9113.1681-9.1383-.0995-18.2872.1818-27.4203.2924-9.491,5.402-15.6907,13.7285-17.0398,2.2347-.3621,5.631-1.6841,6.0256,2.0553.3331,3.1561,2.3076,7.6082-3.4756,8.7392-4.3971.8599-4.9848,4.4334-5.0176,8.0739-.0794,8.8082.0403,17.6186-.0747,26.4261-.1186,9.0839-3.4384,15.9721-12.7141,19.2843-6.0212,2.1501-7.5113,1.4993-7.5147-5.3161Z"/>
    <path class="cls-1" d="m86.3074,36.8847c0,10.4696-.1813,20.9437.0833,31.4066.1167,4.6148-2.2055,5.0162-5.852,5.0386-3.7708.0233-5.7889-.7151-5.7527-5.1753.1728-21.27.1734-42.5433-.0235-63.813C74.7225.0236,76.9713-.0837,80.0575.0219c3.1192.1068,6.4245-.6887,6.3143,4.4585-.2312,10.797-.0702,21.6023-.0644,32.4042Z"/>
    <path class="cls-1" d="m115.1432,55.3419c0,4.6504-.0892,9.3031.0272,13.9506.0999,3.9886-2.4709,4.0724-5.3169,3.9599-2.8834-.1139-6.3238.7917-6.2994-4.012.0406-7.9717.0649-15.9456-.0769-23.9155-.1433-8.0502-1.0635-9.2848-8.871-10.2272-4.8781-.5888-3.3791-3.9422-3.6502-6.6525-.3137-3.1373,1.0876-4.393,4.2728-4.5894,11.5024-.7094,19.2243,6.1159,19.8587,18.0355.238,4.4715.0386,8.9664.0386,13.4506.0057,0,.0114,0,.0171,0Z"/>
    <path class="cls-1" d="m41.3757,56.2092c.0618-5.9715-.3083-11.9594.8029-17.8874,1.5197-8.1074,7.0844-13.516,14.6269-14.0295,1.9155-.1304,4.5694-.5937,4.5506,2.3212-.0183,2.8369,2.1817,7.0071-2.0697,8.2101-5.2113,1.4746-6.1372,4.8507-6.1057,9.371.0569,8.1373-.1536,16.2795.0616,24.4113.1163,4.3963-2.294,4.7718-5.6838,4.6878-3.2787-.0812-6.4963.3232-6.2183-4.6317.2322-4.1389.0476-8.3011.0354-12.453Z"/>
  </g>
</svg>